<?xml version="1.0" standalone="no"?>
<!DOCTYPE svg PUBLIC "-//W3C//DTD SVG 20010904//EN"
 "http://www.w3.org/TR/2001/REC-SVG-20010904/DTD/svg10.dtd">
<svg version="1.0" xmlns="http://www.w3.org/2000/svg"
 width="700.000000pt" height="700.000000pt" viewBox="0 0 700.000000 700.000000"
 preserveAspectRatio="xMidYMid meet">
<metadata>
Created by potrace 1.14, written by Peter Selinger 2001-2017
</metadata>
<g transform="translate(0.000000,700.000000) scale(0.100000,-0.100000)"
fill="#000000" stroke="none">
<path d="M265 6480 c-239 -51 -285 -377 -70 -497 l50 -28 487 -3 c450 -3 487
-4 492 -20 3 -9 39 -127 80 -262 123 -401 297 -971 316 -1035 27 -88 40 -132
167 -545 63 -206 121 -395 128 -420 7 -25 59 -193 114 -375 56 -181 115 -375
132 -430 104 -342 112 -357 227 -411 l52 -25 1620 0 c1833 0 1681 -7 1768 80
34 34 56 70 81 132 19 46 45 107 57 134 12 28 45 106 74 175 28 69 58 139 65
155 22 51 117 277 140 335 12 30 102 244 200 475 97 231 205 488 240 570 34
83 107 254 160 380 89 210 97 236 98 295 0 38 -7 81 -16 102 -26 61 -92 125
-154 148 -54 20 -63 20 -1701 18 l-1647 -3 -40 -22 c-124 -67 -178 -194 -139
-324 18 -59 81 -130 141 -160 l48 -24 1412 -1 c777 0 1415 -3 1418 -6 4 -4
-231 -576 -310 -753 -7 -16 -46 -109 -85 -205 -40 -96 -81 -193 -91 -215 -10
-22 -48 -112 -84 -200 -37 -88 -73 -176 -81 -195 -9 -19 -46 -107 -83 -195
l-67 -160 -1386 0 -1386 0 -37 120 c-20 66 -54 176 -75 245 -34 110 -178 582
-260 850 -67 220 -194 634 -230 750 -21 69 -50 166 -65 215 -15 50 -30 101
-35 115 -5 14 -24 77 -44 140 -34 112 -97 320 -118 390 -6 19 -17 53 -24 75
-7 22 -27 87 -44 145 -17 58 -35 116 -40 130 -5 14 -19 59 -30 100 -27 94 -59
150 -107 188 -34 26 -54 36 -103 50 -24 7 -1182 9 -1215 2z"/>
<path d="M2148 1708 c-343 -87 -469 -508 -229 -770 87 -95 196 -147 320 -153
223 -9 424 134 481 344 93 348 -222 668 -572 579z"/>
<path d="M5652 1709 c-158 -40 -279 -152 -331 -306 -88 -262 69 -544 339 -607
251 -59 505 100 564 352 79 341 -233 647 -572 561z"/>
</g>
</svg>
